#!OML:ASF H:\GeneralSubjects\Female5\Project 1\Capture day 1\Session 1\Female5.ASF
:FULLY-SPECIFIED
:DEGREES
151
root -12.981 15.5538 2.90836 161.439 -77.5293 -152.043
lowerback 6.41298 2.72871 3.80448
upperback -11.0667 4.18063 2.65622
thorax -15.884 1.52981 0.0930267
lowerneck -16.2979 0.776257 0.861017
upperneck 19.045 1.52075 -3.64359
head 8.67376 0.330775 -1.19948
rclavicle -1.91827e-014 -3.57812e-014
rhumerus -7.85525 23.9825 -69.2051
rradius 64.2719
rwrist -35.4149
rhand -28.5194 -23.4492
rfingers 7.12502
rthumb -1.88759 -53.4206
lclavicle -1.91827e-014 -3.57812e-014
lhumerus -4.909 -18.1604 81.9879
lradius 56.665
lwrist 20.5114
lhand -34.81 41.7955
lfingers 7.12502
lthumb -7.96136 71.6255
rfemur 13.5217 5.64275 37.5982
rtibia -7.02688
rfoot -27.1434 -14.721
rtoes -11.5105
lfemur -43.0989 -14.2885 -6.96415
ltibia 29.2876
lfoot -20.1797 -3.59674
ltoes -36.2797
152
root -13.1748 15.5364 2.90742 162.561 -77.4694 -152.912
lowerback 6.70779 2.75506 3.5966
upperback -11.1382 4.20769 2.62866
thorax -16.1791 1.55765 0.159306
lowerneck -16.7353 0.927257 0.863807
upperneck 18.8168 1.75787 -3.75058
head 8.68259 0.434036 -1.20486
rclavicle 3.8763e-015 4.77083e-015
rhumerus -4.87861 23.4301 -68.3286
rradius 64.2074
rwrist -38.472
rhand -28.435 -23.5987
rfingers 7.12502
rthumb -1.80607 -53.5708
lclavicle 3.8763e-015 4.77083e-015
lhumerus -2.78654 -18.6541 81.7333
lradius 57.2568
lwrist 21.2319
lhand -35.0956 42.0606
lfingers 7.12502
lthumb -8.23704 71.88
rfemur 14.1809 7.71267 38.0775
rtibia -7.03903
rfoot -28.3677 -16.0922
rtoes -9.88065
lfemur -42.9279 -13.4994 -7.54312
ltibia 28.5075
lfoot -19.0268 -4.4297
ltoes -36.6678
153
root -13.3711 15.5212 2.91803 164.058 -77.7658 -154.096
lowerback 7.14631 2.70471 3.43097
upperback -11.234 4.13408 2.4973
thorax -16.5901 1.52356 0.0989859
lowerneck -16.8275 0.638839 0.425561
upperneck 18.5426 1.45217 -3.665
head 8.5949 0.272761 -1.13851
rclavicle 7.15625e-015 -5.4467e-014
rhumerus -1.98696 22.7942 -67.4799
rradius 63.9713
rwrist -41.5668
rhand -28.0015 -23.8276
rfingers 7.12502
rthumb -1.38737 -53.8029
lclavicle 7.15625e-015 -5.4467e-014
lhumerus -0.80975 -19.0518 81.5566
lradius 57.8672
lwrist 22.1362
lhand -35.6534 42.1773
lfingers 7.12502
lthumb -8.77537 71.9749
rfemur 15.0497 10.5145 38.7084
rtibia -7.1943
rfoot -30.3181 -18.4167
rtoes -8.15921
lfemur -43.1674 -12.8078 -8.70179
ltibia 28.7732
lfoot -17.8345 -5.03883
ltoes -35.7737
154
root -13.5776 15.5062 2.93249 166.647 -78.2571 -156.304
lowerback 7.59606 2.65336 2.98603
upperback -11.278 4.01464 2.34866
thorax -16.9638 1.50608 0.182414
lowerneck -17.3705 0.57845 0.237445
upperneck 18.2538 1.46955 -3.87542
head 8.59617 0.247695 -1.1744
rclavicle 1.13307e-014 -1.66979e-014
rhumerus 0.955027 22.0267 -66.5017
rradius 63.5915
rwrist -44.6741
rhand -27.3931 -24.2981
rfingers 7.12502
rthumb -0.799787 -54.2764
lclavicle 1.13307e-014 -1.66979e-014
lhumerus 1.33643 -19.4032 81.5075
lradius 58.2596
lwrist 23.3195
lhand -36.1135 42.7532
lfingers 7.12502
lthumb -9.21935 72.5316
rfemur 15.5696 12.015 38.5634
rtibia -7.01091
rfoot -32.1065 -19.6317
rtoes -7.2925
lfemur -43.7465 -12.0755 -10.3693
ltibia 30.1825
lfoot -17.0908 -6.18578
ltoes -34.5695
155
root -13.7976 15.4851 2.94804 169.82 -78.7568 -159.066
lowerback 8.03951 2.61313 2.46115
upperback -11.2887 3.89148 2.19689
thorax -17.2973 1.50021 0.308437
lowerneck -17.7614 0.516925 -0.311876
upperneck 17.6998 1.47406 -3.5965
head 8.47272 0.252164 -0.984613
rclavicle 6.4605e-015 2.74323e-014
rhumerus 3.79276 21.2549 -65.4395
rradius 63.2869
rwrist -47.5762
rhand -26.8365 -25.1377
rfingers 7.12502
rthumb -0.262148 -55.1173
lclavicle 6.4605e-015 2.74323e-014
lhumerus 3.63282 -19.8169 81.4201
lradius 58.4234
lwrist 24.6706
lhand -36.3466 43.4005
lfingers 7.12502
lthumb -9.44422 73.1689
rfemur 16.176 13.5631 38.3791
rtibia -6.96474
rfoot -33.7279 -21.2685
rtoes -7.54239
lfemur -44.4492 -11.3597 -12.1084
ltibia 32.2061
lfoot -17.4859 -8.05843
ltoes -33.5848
156
root -14.0271 15.4619 2.96725 173.101 -79.2689 -161.885
lowerback 8.54044 2.54505 2.00085
upperback -11.329 3.73514 2.04645
thorax -17.7047 1.47013 0.40715
lowerneck -18.2661 0.519628 -0.70032
upperneck 17.3272 1.54864 -3.39222
head 8.43327 0.288576 -0.84015
rclavicle 3.32964e-014 2.26615e-014
rhumerus 6.47044 20.6945 -64.3729
rradius 63.1429
rwrist -50.0087
rhand -26.6804 -26.2156
rfingers 7.12502
rthumb -0.11136 -56.1954
lclavicle 3.32964e-014 2.26615e-014
lhumerus 5.71091 -20.2534 81.2906
lradius 58.6886
lwrist 26.0218
lhand -36.6266 43.7842
lfingers 7.12502
lthumb -9.71436 73.5402
rfemur 16.5628 14.746 38.0485
rtibia -6.65817
rfoot -35.1438 -22.8758
rtoes -8.39747
lfemur -45.0534 -10.8066 -13.7035
ltibia 34.0964
lfoot -19.0814 -9.76627
ltoes -32.1032
